<?xml version="1.0" encoding="UTF-8" standalone="no"?>
<svg
   width="24"
   height="24"
   viewBox="-2 -2 24 24"
   version="1.1"
   id="svg1"
   sodipodi:docname="jam--github.svg"
   inkscape:version="1.4.2 (ebf0e940d0, 2025-05-08)"
   xmlns:inkscape="http://www.inkscape.org/namespaces/inkscape"
   xmlns:sodipodi="http://sodipodi.sourceforge.net/DTD/sodipodi-0.dtd"
   xmlns="http://www.w3.org/2000/svg"
   xmlns:svg="http://www.w3.org/2000/svg">
  <defs
     id="defs1">
    <inkscape:path-effect
       effect="fillet_chamfer"
       id="path-effect3"
       is_visible="true"
       lpeversion="1"
       nodesatellites_param="F,0,0,1,0,0.84642927,0,1 @ F,0,0,1,0,0.69764786,0,1 @ F,0,0,1,0,0.80301802,0,1 @ F,0,0,1,0,0.80301802,0,1 @ F,0,0,1,0,0.80301802,0,1 @ F,0,0,1,0,0.23614258,0,1"
       radius="0"
       unit="px"
       method="auto"
       mode="F"
       chamfer_steps="1"
       flexible="false"
       use_knot_distance="true"
       apply_no_radius="true"
       apply_with_radius="true"
       only_selected="false"
       hide_knots="false" />
  </defs>
  <sodipodi:namedview
     id="namedview1"
     pagecolor="#505050"
     bordercolor="#eeeeee"
     borderopacity="1"
     inkscape:showpageshadow="0"
     inkscape:pageopacity="0"
     inkscape:pagecheckerboard="0"
     inkscape:deskcolor="#505050"
     showguides="true"
     inkscape:zoom="13.595194"
     inkscape:cx="5.1121008"
     inkscape:cy="9.7460914"
     inkscape:window-width="1366"
     inkscape:window-height="740"
     inkscape:window-x="0"
     inkscape:window-y="0"
     inkscape:window-maximized="1"
     inkscape:current-layer="svg1" />
  <path
     id="path14"
     style="display:inline;fill:#ffffff;stroke-width:0.567375"
     d="M 10.377338,-0.45681504 A 5.6500362,6.4541664 0 0 0 8.0988749,0.14167606 L 1.6411989,3.5586432 a 3.8508135,4.3988729 0 0 0 -2.2358183,4.0641723 l 0.085291,5.7274215 a 3.9159113,4.4732356 0 0 0 2.3332928,4.015459 l 6.2627276,3.166437 a 4.3145246,4.9285808 0 0 0 2.893769,0.243572 4.3145246,4.9285808 0 0 0 0.99302,-0.466267 l 1.772816,-1.155227 0.0061,-0.007 c 0.02715,-0.0349 0.05252,-0.07107 0.0731,-0.111343 0.0519,-0.09359 0.0781,-0.19899 0.0792,-0.313158 v -0.5289 c 0.0011,-0.337737 0.0042,-0.609255 0.0061,-0.807269 l -0.164493,0.139179 c -0.10259,0.08755 -0.233279,0.178793 -0.389897,0.278383 -0.163376,0.102895 -0.326924,0.19275 -0.487371,0.264469 -0.170955,0.07683 -0.326823,0.09944 -0.463004,0.06958 -0.142961,-0.02788 -0.249914,-0.123522 -0.304594,-0.278354 l -0.067,-0.132384 c -0.05789,-0.103583 -0.133012,-0.191779 -0.219321,-0.257451 -0.09916,-0.08039 -0.202362,-0.112301 -0.304606,-0.09742 l -0.04875,-0.007 c -0.03345,-0.0058 -0.05843,-0.01744 -0.0853,-0.0349 -0.0224,-0.01359 -0.05136,-0.04493 -0.06702,-0.06958 v -0.007 -0.007 l -0.0061,-0.007 v -0.007 l 0.0061,-0.007 v -0.007 -0.007 c 0.0059,-0.01899 0.01779,-0.03884 0.03655,-0.06264 0.03759,-0.04842 0.108691,-0.103357 0.207131,-0.167 l 0.140119,-0.06958 c 0.09321,-0.04028 0.204599,-0.0493 0.34116,-0.0349 0.138029,0.01516 0.251863,0.07401 0.335069,0.180926 0.105712,0.143046 0.239423,0.222792 0.389898,0.236632 0.150869,0.01324 0.302784,-0.0318 0.45691,-0.132228 0.154091,-0.100368 0.283281,-0.199922 0.39599,-0.299242 0.109143,-0.09609 0.215758,-0.201588 0.316791,-0.320098 0.04542,-0.376502 0.164753,-0.720303 0.353344,-1.029959 -0.241986,0.13099 -0.483616,0.240352 -0.718874,0.327074 -0.229539,0.07944 -0.45186,0.122227 -0.657951,0.125294 -0.215723,0.0092 -0.401009,-0.04702 -0.554386,-0.160068 -0.14742,-0.111117 -0.26681,-0.301412 -0.359439,-0.577613 -0.09226,-0.276912 -0.138307,-0.635365 -0.134022,-1.078674 0.0063,-0.630516 0.193365,-1.292416 0.566569,-1.976415 -0.167819,-0.361886 -0.143778,-0.899068 0.06702,-1.621494 0.136253,-0.135799 0.338092,-0.2364 0.603122,-0.292264 0.265006,-0.05598 0.45563,-0.07904 0.578753,-0.07654 0.123117,0.0035 0.22431,0.0058 0.298517,0.01394 0.439305,-0.4228843 0.891686,-0.7852653 1.346365,-1.0799863 0.462652,-0.301403 0.913043,-0.5274319 1.346365,-0.6750409 l 0.268056,-0.3618806 c 0.206054,-0.2701678 0.420628,-0.5208952 0.64577,-0.7585514 0.248502,-0.2654031 0.435917,-0.4208203 0.566569,-0.4593075 0.204433,0.4523598 0.220408,0.9719102 0.04264,1.55886 0.364978,0.2024199 0.542213,0.6213444 0.536108,1.2526584 -0.0042,0.4433173 -0.05308,0.8630003 -0.152297,1.2665743 -0.09885,0.403746 -0.223769,0.759764 -0.377711,1.064759 -0.160694,0.314398 -0.35504,0.617202 -0.572663,0.890775 -0.227671,0.288075 -0.450433,0.5364 -0.664045,0.737674 -0.236526,0.220815 -0.476366,0.420759 -0.718872,0.605451 0.240179,0.07657 0.357876,0.36468 0.353344,0.869897 l -0.01829,1.872027 c -8.53e-4,0.08815 0.0074,0.155258 0.03046,0.19488 l 0.0061,0.007 0.0061,0.007 0.0061,0.007 h 0.0061 v 0.007 l 0.0061,0.007 h 0.0061 0.0061 0.0061 c 0.01516,0.0058 0.0466,0.0089 0.06702,0.007 L 18.24235,16.22346 a 4.6294185,5.288291 0 0 0 2.339383,-4.509561 l 0.0974,-6.9383449 A 1.0926614,1.2481721 0 0 0 20.53295,4.1362568 1.0926614,1.2481721 0 0 0 20.015115,3.607358 L 12.674077,0.05816556 a 5.6500362,6.4541664 0 0 0 -2.296739,-0.5149806 z M 0.94669427,7.9707764 c 0.12244563,-0.00976 0.26535483,0.032404 0.43254223,0.1183081 0.1648282,0.084685 0.3100957,0.1915542 0.4325426,0.3270832 0.1224456,0.1328375 0.2180438,0.285474 0.2863317,0.452348 0.068288,0.164196 0.1035661,0.337464 0.1035661,0.514984 L 1.7569492,9.1538537 c 0,-0.137193 -0.037642,-0.262354 -0.1035662,-0.368835 C 1.5898057,8.6770247 1.4993281,8.5961734 1.3792357,8.5344967 1.2591437,8.4728251 1.164929,8.4611009 1.0989982,8.4995667 c -0.00411,0.00244 -0.014425,0.010974 -0.018298,0.013937 -0.050478,0.044686 -0.079201,0.1304856 -0.079201,0.250524 v 1.2874543 c 0,0.137192 0.031517,0.259659 0.09747,0.368826 0.065935,0.109166 0.1601454,0.195812 0.2802376,0.25749 0.120092,0.06167 0.2105697,0.07052 0.2741472,0.0279 0.065931,-0.04145 0.1035661,-0.134213 0.1035661,-0.271406 V 10.107169 L 1.3182874,9.8844907 v -0.438424 l 0.8833613,0.452345 v 0.7655103 c 0,0.177513 -0.035278,0.313896 -0.1035661,0.410594 -0.068288,0.09405 -0.1638822,0.14336 -0.2863317,0.153099 -0.1224456,0.007 -0.2677081,-0.02674 -0.4325426,-0.111343 C 1.212023,11.030362 1.0691126,10.922012 0.94666574,10.789159 0.8242201,10.653621 0.72862174,10.501003 0.66033406,10.336811 0.59439966,10.171117 0.56286186,9.9993467 0.56286186,9.8218287 V 8.5412684 c 0,-0.1775126 0.0315169,-0.3153361 0.0974722,-0.4105905 0.068288,-0.096723 0.16388221,-0.1530288 0.28633168,-0.160067 z M 3.3652764,8.9729017 c 0.00373,-8.76e-4 0.00838,5.32e-4 0.012177,0 0.045915,-0.0066 0.1034725,0.007 0.1705773,0.04176 0.089481,0.04598 0.1614206,0.11444 0.2132252,0.194879 0.051804,0.07773 0.079197,0.154806 0.079197,0.243573 0,0.04993 -0.014077,0.101758 -0.030469,0.132228 l -0.00608,0.007 c -0.00223,0.003 -0.015818,0.01822 -0.018297,0.02094 l -0.00608,0.007 h -0.00608 v 0.007 h -0.00608 -0.00608 c -0.051809,0.02442 -0.1237489,0.01822 -0.2132307,-0.02791 -0.089481,-0.04597 -0.1614206,-0.110172 -0.2132252,-0.187862 -0.051804,-0.0804 -0.073107,-0.161774 -0.073107,-0.250512 0,-0.04439 0.011394,-0.09002 0.024384,-0.118273 0.00183,-0.0033 0.010162,-0.01784 0.012178,-0.02094 l 0.00608,-0.007 0.00608,-0.007 0.00608,-0.007 c 0.00284,-0.0021 0.015243,-0.01202 0.018297,-0.01394 0.00969,-0.0051 0.019344,-0.01132 0.030469,-0.01394 z m -0.6031225,0.591532 1.035665,0.5358573 v 1.760677 l 0.5970309,0.306217 v 0.459306 L 2.6951405,11.749625 v -0.459304 l 0.6640439,0.340992 V 10.329942 L 2.7621539,10.023723 Z m 2.4429513,0.6332853 0.4447265,0.222678 v 0.626329 l 0.7737029,0.396673 v 0.459309 l -0.7737029,-0.39666 v 1.085636 c 0,0.06458 0.018143,0.122193 0.048738,0.180923 0.032991,0.0573 0.077515,0.1032 0.1340239,0.132229 l 0.5726621,0.2923 v 0.459305 L 5.7960413,13.343289 C 5.6147289,13.250133 5.471815,13.120614 5.3634991,12.946613 5.2575376,12.771116 5.2051017,12.580383 5.2051017,12.375958 V 11.27639 L 4.6689944,10.998008 v -0.452352 l 0.5361089,0.271406 z m -4.84934923,1.036924 0.36552822,0.187902 0.16449196,2.143433 c 0.004721,0.07239 0.007473,0.165608 0.0121774,0.278384 0.007056,0.111185 0.0121774,0.203024 0.0121774,0.278386 0.007056,-0.07169 0.011202,-0.160503 0.0182976,-0.264468 0.009424,-0.105455 0.0233759,-0.191199 0.0304716,-0.25749 l 0.22540954,-1.941615 0.3777129,0.19488 0.2071311,2.164313 c 0.00706,0.07357 0.02105,0.170224 0.03047,0.285322 0.011742,0.113623 0.017334,0.206396 0.024384,0.285325 0.00235,-0.07412 0.00747,-0.159247 0.012178,-0.264467 0.00706,-0.106651 0.013571,-0.196936 0.018298,-0.264468 L 2.0128813,12.083668 2.3784095,12.27157 2.092078,15.06917 1.6047062,14.818657 1.4097557,12.654346 c -0.00706,-0.08164 -0.017334,-0.178366 -0.024385,-0.292302 -0.00706,-0.116566 -0.013571,-0.210309 -0.018298,-0.285323 -0.00472,0.07021 -0.011202,0.155101 -0.018298,0.264467 -0.00706,0.106651 -0.011202,0.19705 -0.018298,0.271407 l -0.2132409,1.95551 -0.49346385,-0.250524 z m 2.41249013,1.962492 0.4325422,0.222678 v 0.43147 c 0.023569,-0.133169 0.078751,-0.214342 0.1705773,-0.250512 0.094188,-0.03759 0.2171834,-0.02054 0.3655283,0.05572 0.1977961,0.101598 0.3523322,0.25024 0.4630037,0.452348 0.1106716,0.202091 0.1644884,0.435005 0.1644884,0.695923 V 15.01352 L 3.9257508,14.790831 v -0.187904 c 0,-0.134527 -0.036247,-0.253533 -0.09747,-0.354909 -0.061224,-0.104091 -0.1428442,-0.185499 -0.2558686,-0.243571 -0.1103762,-0.05668 -0.2073481,-0.0537 -0.2680571,-0.01394 -0.061224,0.04923 -0.097476,0.144336 -0.097476,0.292302 v 1.363997 l -0.4386353,-0.22967 z m 2.4003059,1.301371 c 0.121855,-0.007 0.2698866,0.02869 0.4447269,0.118274 0.2472508,0.127036 0.4360871,0.292146 0.5726618,0.494102 0.1365708,0.201937 0.2071311,0.421725 0.2071311,0.661122 v 1.510144 L 5.9605292,17.059476 v -0.41755 c -0.01648,0.134092 -0.075417,0.214884 -0.176672,0.243573 -0.101254,0.02869 -0.2335157,-2.8e-5 -0.3959894,-0.0835 C 5.1900718,16.700397 5.0341555,16.563196 4.9187723,16.377486 4.8057482,16.190321 4.7481951,15.993075 4.7481951,15.785954 c 0,-0.215193 0.065434,-0.357662 0.1949505,-0.417552 0.1295117,-0.06257 0.3100569,-0.03295 0.5361093,0.0835 l 0.469095,0.243571 v -0.160066 c 0,-0.223259 -0.1127537,-0.39068 -0.3411596,-0.50802 -0.1036044,-0.05322 -0.1824597,-0.07692 -0.2436841,-0.06265 h -0.00608 l -0.00608,0.007 c -0.011359,0.0051 -0.023261,0.01049 -0.030471,0.01394 -0.00298,0.0019 -0.015505,0.01167 -0.018297,0.01394 l -0.00608,0.007 -0.00608,0.007 -0.00608,0.007 c -0.00192,0.0032 -0.010467,0.01744 -0.012178,0.02095 v 0.007 l -0.00608,0.007 c -0.00396,0.0162 -0.00442,0.03683 -0.00608,0.05572 l -0.426496,-0.222784 c 0.00943,-0.19422 0.082745,-0.31525 0.2193155,-0.368826 0.034735,-0.01324 0.075135,-0.01861 0.1157505,-0.02095 z m 1.7667227,0.84206 0.4325431,0.222678 v 0.40364 c 0.035317,-0.121723 0.097021,-0.198835 0.1888563,-0.229655 0.091835,-0.03334 0.2045842,-0.01481 0.3411595,0.05572 0.1248028,0.06407 0.2347881,0.160031 0.3289747,0.278385 0.096549,0.119563 0.1736033,0.254853 0.2254107,0.410591 0.054163,0.154248 0.079197,0.317693 0.079197,0.487142 v 0.59849 c 0,0.255552 -0.055191,0.432162 -0.1705719,0.528901 -0.1153813,0.09672 -0.2722707,0.09799 -0.4630032,0 C 7.7612685,18.026278 7.6508732,17.926262 7.5566814,17.797209 7.4648468,17.669319 7.3970553,17.52216 7.3617309,17.358781 l 0.018297,0.535854 v 0.619374 l -0.444733,-0.22966 z m -1.6326951,0.403638 c -0.012718,0.0042 -0.025974,0.01481 -0.036556,0.02094 l -0.00608,0.007 h -0.00608 c -0.00442,0.0038 -0.00911,0.01132 -0.012177,0.01394 -0.00143,0.0014 -0.00829,0.01083 -0.012178,0.01394 h -0.00608 c -0.02671,0.03644 -0.036556,0.0935 -0.036556,0.160068 0,0.09951 0.026438,0.193214 0.085291,0.285323 0.061224,0.09059 0.1452014,0.165852 0.2558686,0.222677 0.1295118,0.06653 0.2353495,0.08262 0.3107005,0.04869 l 0.00608,-0.007 c 0.021205,-0.01237 0.046757,-0.03218 0.060923,-0.04869 0.029425,-0.04164 0.042644,-0.105297 0.042644,-0.180925 V 16.022744 L 5.4975535,15.786111 c -0.072408,-0.03721 -0.132874,-0.0509 -0.1827662,-0.04175 -0.00415,7.63e-4 -0.00794,-0.0015 -0.012178,0 z m 2.2236336,0.354908 c -0.021012,0.0042 -0.036945,0.01516 -0.054829,0.02792 -0.06122,0.0466 -0.091382,0.142785 -0.091382,0.285325 v 0.528895 c 0,0.142542 0.03016,0.273305 0.091382,0.382744 0.063578,0.110677 0.1489348,0.192478 0.2619631,0.250512 0.1130241,0.05806 0.2007382,0.06632 0.2619626,0.0279 0.063578,-0.03721 0.097472,-0.126183 0.097472,-0.271407 v -0.57057 c 0,-0.145259 -0.033922,-0.273188 -0.097472,-0.375806 -0.061224,-0.101406 -0.1489381,-0.178559 -0.2619626,-0.236631 -0.070645,-0.03644 -0.1314351,-0.05281 -0.1827624,-0.04869 -0.00768,6.17e-4 -0.017369,-0.0014 -0.024384,0 z" />
</svg>
